<svg width="12" height="10" viewBox="0 0 12 10" fill="none" xmlns="http://www.w3.org/2000/svg">
<path fill-rule="evenodd" clip-rule="evenodd" d="M8.86865 4.19995L6.23434 1.56564C5.92192 1.25322 5.92192 0.746685 6.23434 0.434266C6.54676 0.121846 7.05329 0.121846 7.36571 0.434266L11.3657 4.43427C11.6781 4.74669 11.6781 5.25322 11.3657 5.56564L7.36571 9.56564C7.05329 9.87806 6.54676 9.87806 6.23434 9.56564C5.92192 9.25322 5.92192 8.74669 6.23434 8.43427L8.86865 5.79995H1.20002C0.758197 5.79995 0.400024 5.44178 0.400024 4.99995C0.400024 4.55812 0.758197 4.19995 1.20002 4.19995H8.86865Z" fill="#0B24FB"/>
<mask id="mask0_0_131" style="mask-type:alpha" maskUnits="userSpaceOnUse" x="0" y="0" width="12" height="10">
<path fill-rule="evenodd" clip-rule="evenodd" d="M8.86865 4.19995L6.23434 1.56564C5.92192 1.25322 5.92192 0.746685 6.23434 0.434266C6.54676 0.121846 7.05329 0.121846 7.36571 0.434266L11.3657 4.43427C11.6781 4.74669 11.6781 5.25322 11.3657 5.56564L7.36571 9.56564C7.05329 9.87806 6.54676 9.87806 6.23434 9.56564C5.92192 9.25322 5.92192 8.74669 6.23434 8.43427L8.86865 5.79995H1.20002C0.758197 5.79995 0.400024 5.44178 0.400024 4.99995C0.400024 4.55812 0.758197 4.19995 1.20002 4.19995H8.86865Z" fill="white"/>
</mask>
<g mask="url(#mask0_0_131)">
</g>
</svg>
